<svg version="1.1" viewBox="0 0 43 6" xmlns="http://www.w3.org/2000/svg" xmlns:xlink="http://www.w3.org/1999/xlink"><defs><linearGradient id="a" x1="6" x2="6" y1="8" y2="11" gradientTransform="translate(-5.836 -7)" gradientUnits="userSpaceOnUse"><stop stop-color="#f05" offset="0"/><stop stop-color="#05f" offset="1"/></linearGradient></defs><g><path d="m3.664 0c-.277 0-.5.223-.5.5v3.5h-2.5c-.277 0-.5.223-.5.5v.5h3.5c.277 0 .5-.223.5-.5v-3.5h2.5c.277 0 .5-.223.5-.5v-.5h-1z" fill="url(#a)" stroke-linecap="square" stroke-width="10"/><path d="m40.33 3.74q0-.33.1-.57.1-.245.275-.405.18-.16.415-.235.24-.08.515-.08.1 0 .195.02.095.015.155.04v-.81q.05-.015.16-.03.11-.02.225-.02.11 0 .195.015.09.015.15.06t.09.125q.03.075.03.2v2.37q0 .235-.22.375-.145.095-.375.165-.23.075-.53.075-.325 0-.585-.09-.255-.09-.435-.26-.175-.17-.27-.405-.09-.24-.09-.54zm1.42-.625q-.27 0-.415.155t-.145.47q0 .31.135.47.135.155.39.155.09 0 .16-.025.075-.03.115-.065v-1.1q-.1-.06-.24-.06zm-2.418 1.835q-.05.015-.16.03-.105.015-.22.015-.11 0-.2-.015-.085-.015-.145-.06t-.095-.12q-.03-.08-.03-.205v-1.5q0-.115.04-.195.045-.085.125-.15t.195-.115q.12-.055.255-.095t.28-.06q.145-.025.29-.025.24 0 .38.095.14.09.14.3 0 .07-.02.14-.02.065-.05.12-.105 0-.215.01-.11.01-.215.03t-.2.045q-.09.02-.155.05zm-2.535-.535q.085 0 .185-.015.105-.02.155-.05v-.4l-.36.03q-.14.01-.23.06t-.09.15.075.165q.08.06.265.06zm-.04-1.965q.27 0 .49.055.225.055.38.17.16.11.245.285.085.17.085.405v1.12q0 .13-.075.215-.07.08-.17.14-.325.195-.915.195-.265 0-.48-.05-.21-.05-.365-.15-.15-.1-.235-.255-.08-.155-.08-.36 0-.345.205-.53.205-.185.635-.23l.655-.07v-.035q0-.145-.13-.205-.125-.065-.365-.065-.19 0-.37.04t-.325.1q-.065-.045-.11-.135-.045-.095-.045-.195 0-.13.06-.205.065-.08.195-.135.145-.055.34-.08.2-.025.375-.025zm-1.424 1.29q0 .31-.095.555-.095.24-.27.405-.17.165-.41.25-.24.085-.535.085-.295 0-.535-.09t-.415-.255q-.17-.17-.265-.41t-.095-.54q0-.295.095-.535.095-.24.265-.405.175-.17.415-.26t.535-.09.535.095q.24.09.41.26.175.165.27.405.095.24.095.53zm-1.75 0q0 .305.115.47.12.16.33.16.21 0 .32-.165.115-.165.115-.465t-.115-.46q-.115-.165-.325-.165t-.325.165q-.115.16-.115.46zm-3.704-2.04q.05-.015.16-.03.11-.02.225-.02.11 0 .195.015.09.015.15.06.06.045.09.125.03.075.03.2v.49q.125-.05.235-.07.115-.02.25-.02.24 0 .455.085t.38.25q.165.16.26.4.095.24.095.555 0 .325-.1.57-.095.24-.27.4t-.43.245q-.25.08-.555.08-.33 0-.56-.08-.23-.075-.39-.19-.22-.155-.22-.4zm1.17 2.665q.23 0 .355-.155.13-.16.13-.47 0-.315-.13-.47-.13-.155-.35-.155-.1 0-.175.02-.07.02-.155.06v1.09q.055.035.13.06.08.02.195.02zm-2.639.67q-.295 0-.55-.08-.25-.085-.44-.25-.185-.165-.295-.415-.105-.25-.105-.585 0-.33.105-.565.11-.24.285-.39.175-.155.4-.225.225-.075.46-.075.265 0 .48.08.22.08.375.22.16.14.245.335.09.195.09.425 0 .17-.095.26t-.265.115l-1.235.185q.055.165.225.25.17.08.39.08.205 0 .385-.05.185-.055.3-.125.08.05.135.14t.055.19q0 .225-.21.335-.16.085-.36.115t-.375.03zm-.14-1.965q-.12 0-.21.04-.085.04-.14.105-.055.06-.085.14-.025.075-.03.155l.855-.14q-.015-.1-.11-.2t-.28-.1zm-2.248 1.88q-.05.015-.16.03-.105.015-.22.015-.11 0-.2-.015-.085-.015-.145-.06t-.095-.12q-.03-.08-.03-.205v-1.5q0-.115.04-.195.045-.085.125-.15t.195-.115q.12-.055.255-.095t.28-.06q.145-.025.29-.025.24 0 .38.095.14.09.14.3 0 .07-.02.14-.02.065-.05.12-.105 0-.215.01t-.215.03-.2.045q-.09.02-.155.05zm-1.265-1.21q0 .31-.095.555-.095.24-.27.405-.17.165-.41.25-.24.085-.535.085-.295 0-.535-.09t-.415-.255q-.17-.17-.265-.41t-.095-.54q0-.295.095-.535.095-.24.265-.405.175-.17.415-.26t.535-.09q.295 0 .535.095.24.09.41.26.175.165.27.405.095.24.095.53zm-1.75 0q0 .305.115.47.12.16.33.16t.32-.165q.115-.165.115-.465t-.115-.46q-.115-.165-.325-.165t-.325.165q-.115.16-.115.46zm-1.758-.62q-.125 0-.24.04-.11.04-.195.12-.08.075-.13.19t-.05.27q0 .31.175.465.18.155.435.155.15 0 .26-.035t.195-.075q.1.07.15.155.05.08.05.195 0 .205-.195.32-.195.11-.54.11-.315 0-.57-.09-.255-.095-.44-.26-.18-.17-.28-.405t-.1-.52q0-.33.105-.575.11-.25.295-.41t.425-.24q.245-.08.515-.08.36 0 .555.13t.195.335q0 .095-.045.18-.045.08-.105.14-.085-.04-.205-.075-.12-.04-.26-.04zm-1.81 1.11q0 .38-.285.595t-.84.215q-.21 0-.39-.03t-.31-.09q-.125-.065-.2-.16-.07-.095-.07-.225 0-.12.05-.2.05-.085.12-.14.145.08.33.145.19.06.435.06.155 0 .235-.045.085-.045.085-.12 0-.07-.06-.11t-.2-.065l-.15-.03q-.435-.085-.65-.265-.21-.185-.21-.525 0-.185.08-.335.08-.15.225-.25t.345-.155q.205-.055.45-.055.185 0 .345.03.165.025.285.08.12.055.19.145.07.085.07.205 0 .115-.045.2-.04.08-.105.135-.04-.025-.12-.05-.08-.03-.175-.05-.095-.025-.195-.04-.095-.015-.175-.015-.165 0-.255.04-.09.035-.09.115 0 .055.05.09t.19.065l.155.035q.48.11.68.305.205.19.205.495zm-3.509.805q-.295 0-.55-.08-.25-.085-.44-.25-.185-.165-.295-.415-.105-.25-.105-.585 0-.33.105-.565.11-.24.285-.39.175-.155.4-.225.225-.075.46-.075.265 0 .48.08.22.08.375.22.16.14.245.335.09.195.09.425 0 .17-.095.26t-.265.115l-1.235.185q.055.165.225.25.17.08.39.08.205 0 .385-.05.185-.055.3-.125.08.05.135.14t.055.19q0 .225-.21.335-.16.085-.36.115t-.375.03zm-.14-1.965q-.12 0-.21.04-.085.04-.14.105-.055.06-.085.14-.025.075-.03.155l.855-.14q-.015-.1-.11-.2t-.28-.1zm-1.676 1.88q-.055.01-.165.025-.105.02-.215.02t-.2-.015q-.085-.015-.145-.06t-.095-.12q-.03-.08-.03-.205v-2.9q.055-.01.16-.025.11-.02.22-.02t.195.015q.09.015.15.06t.09.125q.035.075.035.2zm-2.68-2.5q.3 0 .555.08.26.075.445.235.185.16.29.405.105.24.105.575 0 .32-.09.56t-.255.405q-.165.16-.4.24-.23.08-.515.08-.215 0-.4-.065v.83q-.05.015-.16.03-.11.02-.225.02-.11 0-.2-.015-.085-.015-.145-.06t-.09-.125q-.03-.075-.03-.2v-2.4q0-.135.055-.22.06-.085.16-.155.155-.1.385-.16t.515-.06zm.01 1.91q.515 0 .515-.615 0-.32-.13-.475-.125-.155-.365-.155-.095 0-.17.025-.075.02-.13.05v1.1q.06.03.13.05t.15.02zm-4.189-1.91q.205 0 .4.06.2.055.345.17.15-.1.335-.165.19-.065.455-.065.19 0 .37.05.185.05.325.16.145.105.23.285.085.175.085.43v1.575q-.05.015-.16.03-.105.015-.22.015-.11 0-.2-.015-.085-.015-.145-.06t-.095-.12q-.03-.08-.03-.205v-1.195q0-.15-.085-.215-.085-.07-.23-.07-.07 0-.15.035-.08.03-.12.065.005.02.005.04 0 .015 0 .03v1.665q-.055.015-.165.03-.105.015-.215.015t-.2-.015q-.085-.015-.145-.06t-.095-.12q-.03-.08-.03-.205v-1.195q0-.15-.095-.215-.09-.07-.22-.07-.09 0-.155.03-.065.025-.11.05v1.755q-.05.015-.16.03-.105.015-.22.015-.11 0-.2-.015-.085-.015-.145-.06t-.095-.12q-.03-.08-.03-.205v-1.51q0-.135.055-.215.06-.08.16-.15.17-.12.42-.195.255-.075.53-.075zm-2.591-.6q0-.19.125-.32.13-.13.34-.13t.335.13q.13.13.13.32t-.13.32q-.125.13-.335.13t-.34-.13q-.125-.13-.125-.32zm.89 3.1q-.055.01-.165.025-.105.02-.215.02t-.2-.015q-.085-.015-.145-.06t-.095-.12q-.03-.08-.03-.205v-2.035q.055-.01.16-.025.11-.02.22-.02t.195.015q.09.015.15.06t.09.125q.035.075.035.2z" fill="#57f"/></g></svg>
